<?xml version="1.0" encoding="UTF-8"?>
<svg id="SVGRoot" width="250px" height="250px" version="1.1" viewBox="0 0 250 250" xmlns="http://www.w3.org/2000/svg" xmlns:cc="http://creativecommons.org/ns#" xmlns:dc="http://purl.org/dc/elements/1.1/" xmlns:rdf="http://www.w3.org/1999/02/22-rdf-syntax-ns#">
 <metadata>
  <rdf:RDF>
   <cc:Work rdf:about="">
    <dc:format>image/svg+xml</dc:format>
    <dc:type rdf:resource="http://purl.org/dc/dcmitype/StillImage"/>
    <dc:title/>
   </cc:Work>
  </rdf:RDF>
 </metadata>
 <g fill="none" stroke="#000000" stroke-width="2">
  <path class="camera" d="m10.833 65h41.667v-20.833h20.833v20.833h41.667l20.833-20.833h41.667l20.833 20.833h41.667v105.36c0 12.643-2.8132 19.643-23.929 19.643h-187.5c-18.571 0-17.571-15-17.738-19.286z" fill="none" stroke="#000000"/>
  <path class="camera" d="m40 78v100" fill="none" stroke="#000000"/>
  <circle cx="155.64" cy="124.89" r="47.059" fill="none" stroke="#000000"/>
 </g>
 <g shape-rendering="auto" stroke-width=".34186" aria-label="borrowedlens" fill="none" stroke="#000000">
  <g>
   <path class="text" d="m38.531 214.47c0 2.5549-0.88773 4.7364-2.6632 6.5443-1.7646 1.8079-3.919 2.7119-6.4631 2.7119-2.8797 0-5.2181-1.2342-7.0152-3.7025v3.2478h-2.2572v-24.488h2.2572v9.857c1.8945-2.3276 4.2546-3.4914 7.0802-3.4914 2.5549 0 4.7039 0.91479 6.4468 2.7444 1.743 1.8188 2.6145 4.011 2.6145 6.5768zm-2.2897-0.065c0-1.2558-0.31936-2.4521-0.9581-3.5888s-1.4994-2.019-2.582-2.6469c-1.0718-0.63873-2.2193-0.9581-3.4426-0.9581-1.245 0-2.4304 0.31937-3.5563 0.9581-1.1151 0.6279-1.9757 1.4777-2.582 2.5495-0.59543 1.0718-0.89314 2.2789-0.89314 3.6213 0 2.0244 0.66038 3.7295 1.9811 5.1152 1.3316 1.3857 3.0042 2.0786 5.0178 2.0786 2.7065 0 4.7309-1.1854 6.0734-3.5563 0.6279-1.1259 0.94186-2.3168 0.94186-3.5726z" color="#000000" color-rendering="auto" dominant-baseline="auto" fill="#000000" image-rendering="auto" solid-color="#000000" stop-color="#000000" style="font-feature-settings:normal;font-variant-alternates:normal;font-variant-caps:normal;font-variant-east-asian:normal;font-variant-ligatures:normal;font-variant-numeric:normal;font-variant-position:normal;font-variation-settings:normal;inline-size:0;isolation:auto;mix-blend-mode:normal;shape-margin:0;shape-padding:0;text-decoration-color:#000000;text-decoration-line:none;text-decoration-style:solid;text-indent:0;text-orientation:mixed;text-transform:none;white-space:normal"/>
   <path class="text" d="m19.961 198.62v24.83h2.5996v-3.043c1.7874 2.2668 4.058 3.498 6.8438 3.498 2.5846 0 4.7926-0.92635 6.5859-2.7637 1.8037-1.8366 2.7109-4.0696 2.7109-6.6641 0-2.6035-0.8907-4.846-2.6602-6.6934-1.7717-1.8598-3.9765-2.7988-6.5723-2.7988-2.7378 0-5.033 1.1598-6.9082 3.3047v-9.6699h-2.5996zm0.3418 0.3418h1.916v10.168l0.30273-0.37305c1.8683-2.2953 4.1686-3.4297 6.9473-3.4297 2.5141 0 4.61 0.89201 6.3242 2.6914v0.00195c1.7152 1.7898 2.5664 3.93 2.5664 6.457 0 2.5153-0.86603 4.6466-2.6133 6.4258-1.736 1.7786-3.8382 2.6602-6.3418 2.6602-2.8309 0-5.1054-1.1996-6.877-3.6328l-0.30859-0.42383v3.6016h-1.916v-24.146zm8.9551 8.0859c-1.2742 0-2.4912 0.32839-3.6406 0.98047-1.1391 0.64173-2.0254 1.5173-2.6465 2.6152-0.61014 1.0982-0.91406 2.3374-0.91406 3.7051 0 2.0616 0.6779 3.8166 2.0273 5.2324 1.3614 1.4168 3.0897 2.1328 5.1426 2.1328 2.7564 0 4.854-1.2308 6.2207-3.6445h0.001953c0.64107-1.1495 0.96289-2.372 0.96289-3.6562 0-1.2848-0.32857-2.5117-0.98047-3.6719-0.65208-1.1605-1.5345-2.068-2.6426-2.7109h-0.001953c-1.0959-0.65275-2.2768-0.98242-3.5293-0.98242zm0 0.3418c1.1936 0 2.3083 0.31145 3.3555 0.93554h0.001953c1.0565 0.61276 1.8944 1.4695 2.5195 2.582 0.62556 1.1133 0.93555 2.279 0.93555 3.5059 0 1.2273-0.30518 2.388-0.91992 3.4902-1.3181 2.3271-3.2678 3.4688-5.9238 3.4688-1.9744 0-3.5928-0.67266-4.8945-2.0274-1.2921-1.3556-1.9336-3.0088-1.9336-4.9961 0-1.3165 0.29098-2.4922 0.87109-3.5371 0.59118-1.0451 1.4252-1.8704 2.5156-2.4844h0.001953v-0.00196c1.1024-0.62539 2.255-0.93554 3.4707-0.93554z" color="#000000" color-rendering="auto" dominant-baseline="auto" image-rendering="auto" solid-color="#000000" stop-color="#000000" style="font-feature-settings:normal;font-variant-alternates:normal;font-variant-caps:normal;font-variant-east-asian:normal;font-variant-ligatures:normal;font-variant-numeric:normal;font-variant-position:normal;font-variation-settings:normal;inline-size:0;isolation:auto;mix-blend-mode:normal;shape-margin:0;shape-padding:0;text-decoration-color:#000000;text-decoration-line:none;text-decoration-style:solid;text-indent:0;text-orientation:mixed;text-transform:none;white-space:normal"/>
  </g>
  <g>
   <path class="text" d="m60.21 214.49c0 2.5982-0.88231 4.7905-2.6469 6.5768-1.7646 1.7754-3.9461 2.6632-6.5443 2.6632s-4.7851-0.88773-6.5605-2.6632c-1.7646-1.7754-2.6469-3.9677-2.6469-6.5768 0-2.4467 0.81195-4.5686 2.4358-6.3657 1.7863-1.9812 4.0435-2.9717 6.7716-2.9717 2.7173 0 4.9691 0.98516 6.7554 2.9555 1.6239 1.7971 2.4358 3.9244 2.4358 6.3819zm-2.3059 0.0487c0-1.9487-0.6658-3.6267-1.9974-5.0341-1.3208-1.4182-2.9501-2.1273-4.8879-2.1273s-3.5726 0.7091-4.9042 2.1273c-1.3208 1.4074-1.9811 3.0854-1.9811 5.0341 0 1.2558 0.29771 2.4304 0.89314 3.5238 0.61708 1.1259 1.4561 1.992 2.517 2.5982s2.2193 0.90938 3.4751 0.90938c2.6848 0 4.6714-1.153 5.9597-3.4589 0.61708-1.1042 0.92562-2.2951 0.92562-3.5726z" color="#000000" color-rendering="auto" dominant-baseline="auto" fill="#000000" image-rendering="auto" solid-color="#000000" stop-color="#000000" style="font-feature-settings:normal;font-variant-alternates:normal;font-variant-caps:normal;font-variant-east-asian:normal;font-variant-ligatures:normal;font-variant-numeric:normal;font-variant-position:normal;font-variation-settings:normal;inline-size:0;isolation:auto;mix-blend-mode:normal;shape-margin:0;shape-padding:0;text-decoration-color:#000000;text-decoration-line:none;text-decoration-style:solid;text-indent:0;text-orientation:mixed;text-transform:none;white-space:normal"/>
   <path class="text" d="m51.02 204.98c-2.7689 0-5.0833 1.0168-6.8984 3.0293-1.6498 1.8257-2.4805 3.996-2.4805 6.4805 0 2.6476 0.90117 4.8921 2.6953 6.6973h0.001953c1.8049 1.8049 4.0445 2.7129 6.6816 2.7129 2.6372 0 4.8699-0.90769 6.6641-2.7129v-0.00195c1.7937-1.8158 2.6973-4.0584 2.6973-6.6953 0-2.4951-0.83059-4.6722-2.4805-6.498-1.8152-2.0023-4.1222-3.0117-6.8809-3.0117zm0 0.3418c2.676 0 4.8696 0.96202 6.627 2.9004 1.5979 1.7684 2.3926 3.8477 2.3926 6.2676 1e-6 2.5595-0.86215 4.6983-2.5977 6.4551-1.7351 1.7457-3.8626 2.6133-6.4219 2.6133-2.5587 0-4.6937-0.86811-6.4395-2.6133-1.7351-1.7458-2.5977-3.8846-2.5977-6.4551 0-2.4088 0.7926-4.4835 2.3906-6.252 1.7573-1.949 3.9597-2.916 6.6465-2.916zm0 1.8828c-1.9795 0-3.6694 0.73327-5.0293 2.1816-1.3477 1.4361-2.0273 3.1651-2.0273 5.1523 0 1.2828 0.30549 2.4879 0.91406 3.6055 0.63071 1.1508 1.4939 2.0423 2.582 2.6641 1.0862 0.62067 2.2772 0.93164 3.5605 0.93164 2.7338 0 4.7945-1.1968 6.1074-3.5469 0.63077-1.1287 0.94727-2.3493 0.94727-3.6543 0-1.9876-0.68431-3.7164-2.043-5.1523-1.3492-1.4487-3.0322-2.1816-5.0117-2.1816zm0 0.3418c1.8961 0 3.4694 0.68652 4.7617 2.0742h0.001953c1.3045 1.3788 1.9492 3.0082 1.9492 4.918 0 1.25-0.30091 2.4086-0.9043 3.4883-1.2636 2.2618-3.1727 3.3711-5.8086 3.3711-1.2283 0-2.3549-0.29488-3.3906-0.88672-1.0338-0.59072-1.8497-1.4302-2.4531-2.5312-0.58228-1.0693-0.87109-2.2126-0.87109-3.4414-1e-6 -1.91 0.63977-3.5393 1.9336-4.918 1.3033-1.388 2.8851-2.0742 4.7812-2.0742z" color="#000000" color-rendering="auto" dominant-baseline="auto" image-rendering="auto" solid-color="#000000" stop-color="#000000" style="font-feature-settings:normal;font-variant-alternates:normal;font-variant-caps:normal;font-variant-east-asian:normal;font-variant-ligatures:normal;font-variant-numeric:normal;font-variant-position:normal;font-variation-settings:normal;inline-size:0;isolation:auto;mix-blend-mode:normal;shape-margin:0;shape-padding:0;text-decoration-color:#000000;text-decoration-line:none;text-decoration-style:solid;text-indent:0;text-orientation:mixed;text-transform:none;white-space:normal"/>
  </g>
  <g>
   <path class="text" d="m72.486 205.75-1.1854 1.9162c-0.47634-0.20569-0.8769-0.30854-1.2017-0.30854-1.8188 0-3.0854 1.2775-3.7999 3.8324-0.28148 1.0068-0.42221 3.0421-0.42221 6.1058v5.9759h-2.3222v-17.668h2.3222v2.582c1.3749-2.0244 2.9068-3.0367 4.5956-3.0367 0.6279 0 1.2991 0.20028 2.0136 0.60084z" color="#000000" color-rendering="auto" dominant-baseline="auto" fill="#000000" image-rendering="auto" solid-color="#000000" stop-color="#000000" style="font-feature-settings:normal;font-variant-alternates:normal;font-variant-caps:normal;font-variant-east-asian:normal;font-variant-ligatures:normal;font-variant-numeric:normal;font-variant-position:normal;font-variation-settings:normal;inline-size:0;isolation:auto;mix-blend-mode:normal;shape-margin:0;shape-padding:0;text-decoration-color:#000000;text-decoration-line:none;text-decoration-style:solid;text-indent:0;text-orientation:mixed;text-transform:none;white-space:normal"/>
   <path class="text" d="m70.473 204.98c-1.6341 0-3.1031 1.0089-4.4238 2.7871v-2.332h-2.6641v18.01h2.6641v-6.1465c0-3.0585 0.14665-5.097 0.41602-6.0606 0.35219-1.2594 0.83689-2.1891 1.4414-2.7988 0.60452-0.60968 1.324-0.9082 2.1934-0.9082 0.28869 0 0.66945 0.09483 1.1328 0.29492l0.13672 0.0586 1.3574-2.1934-0.15625-0.08789c-0.73314-0.41101-1.4334-0.62305-2.0977-0.62305zm0 0.3418c0.53768 0 1.1302 0.20598 1.7539 0.52734l-1.0059 1.625c-0.41784-0.16584-0.80238-0.28516-1.1211-0.28516-0.9494 0-1.7734 0.34199-2.4355 1.0098-0.66212 0.66778-1.167 1.6517-1.5293 2.9473-0.29358 1.0501-0.42774 3.0834-0.42774 6.1524v5.8047h-1.9805v-17.326h1.9805v2.9668l0.3125-0.45898c1.3566-1.9976 2.8326-2.9629 4.4531-2.9629z" color="#000000" color-rendering="auto" dominant-baseline="auto" image-rendering="auto" solid-color="#000000" stop-color="#000000" style="font-feature-settings:normal;font-variant-alternates:normal;font-variant-caps:normal;font-variant-east-asian:normal;font-variant-ligatures:normal;font-variant-numeric:normal;font-variant-position:normal;font-variation-settings:normal;inline-size:0;isolation:auto;mix-blend-mode:normal;shape-margin:0;shape-padding:0;text-decoration-color:#000000;text-decoration-line:none;text-decoration-style:solid;text-indent:0;text-orientation:mixed;text-transform:none;white-space:normal"/>
  </g>
  <g>
   <path class="text" d="m82.49 205.75-1.1854 1.9162c-0.47634-0.20569-0.8769-0.30854-1.2017-0.30854-1.8188 0-3.0854 1.2775-3.7999 3.8324-0.28147 1.0068-0.42221 3.0421-0.42221 6.1058v5.9759h-2.3222v-17.668h2.3222v2.582c1.3749-2.0244 2.9068-3.0367 4.5956-3.0367 0.6279 0 1.2991 0.20028 2.0136 0.60084z" color="#000000" color-rendering="auto" dominant-baseline="auto" fill="#000000" image-rendering="auto" solid-color="#000000" stop-color="#000000" style="font-feature-settings:normal;font-variant-alternates:normal;font-variant-caps:normal;font-variant-east-asian:normal;font-variant-ligatures:normal;font-variant-numeric:normal;font-variant-position:normal;font-variation-settings:normal;inline-size:0;isolation:auto;mix-blend-mode:normal;shape-margin:0;shape-padding:0;text-decoration-color:#000000;text-decoration-line:none;text-decoration-style:solid;text-indent:0;text-orientation:mixed;text-transform:none;white-space:normal"/>
   <path class="text" d="m80.477 204.98c-1.6341 0-3.1051 1.0089-4.4258 2.7871v-2.332h-2.6641v18.01h2.6641v-6.1465c0-3.0585 0.14665-5.097 0.41602-6.0606 0.35219-1.2594 0.83884-2.1891 1.4434-2.7988 0.60452-0.60968 1.322-0.9082 2.1914-0.9082 0.28869 0 0.6714 0.09483 1.1348 0.29492l0.13477 0.0586 1.3574-2.1934-0.15625-0.08789c-0.73314-0.41101-1.4315-0.62305-2.0957-0.62305zm0 0.3418c0.53713 0 1.129 0.20664 1.752 0.52734l-1.0059 1.625c-0.41784-0.16584-0.80238-0.28516-1.1211-0.28516-0.9494 0-1.7715 0.34199-2.4336 1.0098-0.66212 0.66778-1.167 1.6517-1.5293 2.9473-0.29358 1.0501-0.42969 3.0834-0.42969 6.1524v5.8047h-1.9805v-17.326h1.9805v2.9668l0.3125-0.45898c1.3566-1.9976 2.8345-2.9629 4.4551-2.9629z" color="#000000" color-rendering="auto" dominant-baseline="auto" image-rendering="auto" solid-color="#000000" stop-color="#000000" style="font-feature-settings:normal;font-variant-alternates:normal;font-variant-caps:normal;font-variant-east-asian:normal;font-variant-ligatures:normal;font-variant-numeric:normal;font-variant-position:normal;font-variation-settings:normal;inline-size:0;isolation:auto;mix-blend-mode:normal;shape-margin:0;shape-padding:0;text-decoration-color:#000000;text-decoration-line:none;text-decoration-style:solid;text-indent:0;text-orientation:mixed;text-transform:none;white-space:normal"/>
  </g>
  <g>
   <path class="text" d="m101.98 214.49c0 2.5982-0.88231 4.7905-2.6469 6.5768-1.7646 1.7754-3.9461 2.6632-6.5443 2.6632s-4.7851-0.88773-6.5605-2.6632c-1.7646-1.7754-2.6469-3.9677-2.6469-6.5768 0-2.4467 0.81195-4.5686 2.4358-6.3657 1.7863-1.9812 4.0435-2.9717 6.7716-2.9717 2.7173 0 4.9691 0.98516 6.7554 2.9555 1.6239 1.7971 2.4358 3.9244 2.4358 6.3819zm-2.3059 0.0487c0-1.9487-0.6658-3.6267-1.9974-5.0341-1.3208-1.4182-2.9501-2.1273-4.8879-2.1273s-3.5726 0.7091-4.9042 2.1273c-1.3208 1.4074-1.9811 3.0854-1.9811 5.0341 0 1.2558 0.29771 2.4304 0.89314 3.5238 0.61708 1.1259 1.4561 1.992 2.517 2.5982s2.2193 0.90938 3.4751 0.90938c2.6848 0 4.6714-1.153 5.9597-3.4589 0.61708-1.1042 0.92562-2.2951 0.92562-3.5726z" color="#000000" color-rendering="auto" dominant-baseline="auto" fill="#000000" image-rendering="auto" solid-color="#000000" stop-color="#000000" style="font-feature-settings:normal;font-variant-alternates:normal;font-variant-caps:normal;font-variant-east-asian:normal;font-variant-ligatures:normal;font-variant-numeric:normal;font-variant-position:normal;font-variation-settings:normal;inline-size:0;isolation:auto;mix-blend-mode:normal;shape-margin:0;shape-padding:0;text-decoration-color:#000000;text-decoration-line:none;text-decoration-style:solid;text-indent:0;text-orientation:mixed;text-transform:none;white-space:normal"/>
   <path d="m92.785 204.98c-2.7695 0-5.0832 1.016-6.8984 3.0293-1.6498 1.8257-2.4805 3.996-2.4805 6.4805 0 2.6476 0.90312 4.8921 2.6973 6.6973 1.8049 1.8049 4.0445 2.7129 6.6816 2.7129 2.6372 0 4.8718-0.90769 6.666-2.7129v-0.00195c1.7937-1.8158 2.6953-4.0584 2.6953-6.6953 0-2.4951-0.82864-4.6722-2.4785-6.498-1.8152-2.0023-4.1242-3.0117-6.8828-3.0117zm0 0.3418c2.676 0 4.8716 0.96202 6.6289 2.9004 1.5979 1.7684 2.3906 3.8477 2.3906 6.2676 0 2.5595-0.86215 4.6983-2.5977 6.4551-1.7348 1.7449-3.8632 2.6133-6.4219 2.6133-2.5593 0-4.6935-0.8673-6.4395-2.6133-1.7351-1.7458-2.5977-3.8846-2.5977-6.4551 0-2.4088 0.79456-4.4835 2.3926-6.252 1.7573-1.949 3.9578-2.916 6.6445-2.916zm0 1.8828c-1.9795 0-3.6694 0.73327-5.0293 2.1816-1.3477 1.4361-2.0273 3.1651-2.0273 5.1523 0 1.2828 0.30549 2.4879 0.91406 3.6055 0.63071 1.1508 1.4939 2.0423 2.582 2.6641 1.0862 0.62067 2.2772 0.93164 3.5605 0.93164 2.7338 0 4.7964-1.1968 6.1094-3.5469 0.63077-1.1287 0.94727-2.3493 0.94727-3.6543 0-1.9876-0.68626-3.7164-2.0449-5.1523-1.349-1.4479-3.0327-2.1816-5.0117-2.1816zm0 0.3418c1.8961 0 3.4713 0.68652 4.7637 2.0742 1.3045 1.3788 1.9512 3.0082 1.9512 4.918 0 1.25-0.30091 2.4086-0.9043 3.4883-1.2636 2.2618-3.1746 3.3711-5.8105 3.3711-1.2283 0-2.3549-0.29488-3.3906-0.88672-1.0338-0.59072-1.8477-1.4302-2.4512-2.5312-0.58228-1.0693-0.87305-2.2126-0.87305-3.4414 1e-6 -1.91 0.64172-3.5393 1.9355-4.918 1.3033-1.388 2.8832-2.0742 4.7793-2.0742z" color="#000000" color-rendering="auto" dominant-baseline="auto" image-rendering="auto" solid-color="#000000" stop-color="#000000" style="font-feature-settings:normal;font-variant-alternates:normal;font-variant-caps:normal;font-variant-east-asian:normal;font-variant-ligatures:normal;font-variant-numeric:normal;font-variant-position:normal;font-variation-settings:normal;inline-size:0;isolation:auto;mix-blend-mode:normal;shape-margin:0;shape-padding:0;text-decoration-color:#000000;text-decoration-line:none;text-decoration-style:solid;text-indent:0;text-orientation:mixed;text-transform:none;white-space:normal"/>
  </g>
  <g>
   <path class="text" d="m131.14 205.61-7.6648 17.668h-0.43845l-5.6187-12.65-5.6674 12.65h-0.42222l-7.5348-17.668h2.3384l5.4076 12.829 5.6674-12.829h0.40598l5.6511 12.829 5.505-12.829z" color="#000000" color-rendering="auto" dominant-baseline="auto" fill="#000000" image-rendering="auto" solid-color="#000000" stop-color="#000000" style="font-feature-settings:normal;font-variant-alternates:normal;font-variant-caps:normal;font-variant-east-asian:normal;font-variant-ligatures:normal;font-variant-numeric:normal;font-variant-position:normal;font-variation-settings:normal;inline-size:0;isolation:auto;mix-blend-mode:normal;shape-margin:0;shape-padding:0;text-decoration-color:#000000;text-decoration-line:none;text-decoration-style:solid;text-indent:0;text-orientation:mixed;text-transform:none;white-space:normal"/>
   <path class="text" d="m103.54 205.44 7.6797 18.01h0.64648l5.5566-12.4 5.5078 12.4h0.66016l7.8144-18.01h-0.26172-2.4824l-5.3945 12.572-5.5371-12.572h-0.6289l-5.5527 12.568-5.2988-12.568h-2.709zm0.51758 0.34179h1.9648l5.5176 13.09 5.7832-13.09h0.18164l5.7656 13.086 5.6152-13.086h1.998l-7.5156 17.326h-0.21679l-5.7285-12.898-5.7793 12.898h-0.19726l-7.3887-17.326z" color="#000000" color-rendering="auto" dominant-baseline="auto" image-rendering="auto" solid-color="#000000" stop-color="#000000" style="font-feature-settings:normal;font-variant-alternates:normal;font-variant-caps:normal;font-variant-east-asian:normal;font-variant-ligatures:normal;font-variant-numeric:normal;font-variant-position:normal;font-variation-settings:normal;inline-size:0;isolation:auto;mix-blend-mode:normal;shape-margin:0;shape-padding:0;text-decoration-color:#000000;text-decoration-line:none;text-decoration-style:solid;text-indent:0;text-orientation:mixed;text-transform:none;white-space:normal"/>
  </g>
  <g>
   <path class="text" d="m151.23 214.62h-15.882c0.0433 1.9812 0.66041 3.6321 1.8512 4.9529 1.2558 1.3857 2.858 2.0786 4.8067 2.0786 1.8837 0 3.4806-0.57378 4.7905-1.7213 0.59543-0.51964 1.2396-1.3586 1.9324-2.517l1.9162 1.0068c-1.1908 2.3276-2.8418 3.8973-4.9529 4.7093-1.0285 0.40056-2.1923 0.60084-3.4914 0.60084-2.6524 0-4.85-0.8769-6.593-2.6307-1.7322-1.7538-2.5982-3.9569-2.5982-6.6092 0-2.241 0.68745-4.2384 2.0624-5.9922 1.743-2.2302 4.076-3.3452 6.999-3.3452 3.0096 0 5.413 1.1421 7.2101 3.4264 1.2775 1.6239 1.927 3.6375 1.9487 6.0409zm-2.5008-1.9649c-0.56295-2.241-1.77-3.7945-3.6213-4.6606-0.95269-0.44387-1.9541-0.6658-3.0042-0.6658-1.7322 0-3.2207 0.55754-4.4657 1.6726-0.90938 0.81195-1.5968 2.0299-2.0624 3.6538z" color="#000000" color-rendering="auto" dominant-baseline="auto" fill="#000000" image-rendering="auto" solid-color="#000000" stop-color="#000000" style="font-feature-settings:normal;font-variant-alternates:normal;font-variant-caps:normal;font-variant-east-asian:normal;font-variant-ligatures:normal;font-variant-numeric:normal;font-variant-position:normal;font-variation-settings:normal;inline-size:0;isolation:auto;mix-blend-mode:normal;shape-margin:0;shape-padding:0;text-decoration-color:#000000;text-decoration-line:none;text-decoration-style:solid;text-indent:0;text-orientation:mixed;text-transform:none;white-space:normal"/>
   <path class="text" d="m142.07 204.98c-2.9665 0-5.3613 1.1454-7.1328 3.4121-1.3967 1.7816-2.0996 3.8217-2.0996 6.0976 0 2.6896 0.88601 4.9441 2.6484 6.7285 1.7735 1.7846 4.0229 2.6816 6.7129 2.6816 1.3167 0 2.5035-0.20389 3.5547-0.61328 2.1509-0.82801 3.8376-2.4331 5.043-4.7891l0.07617-0.15235-2.209-1.1602-0.08203 0.13867c-0.68757 1.1495-1.3257 1.9767-1.8984 2.4766-1.2794 1.1208-2.8287 1.6797-4.6777 1.6797-1.9082 0-3.4534-0.67032-4.6797-2.0234-1.1248-1.2475-1.7005-2.8042-1.7773-4.666h15.854l-0.00195-0.17383c-0.02192-2.4333-0.68382-4.4888-1.9863-6.1445-1.8258-2.3207-4.2909-3.4922-7.3438-3.4922zm0 0.3418c2.9664 0 5.3077 1.1135 7.0762 3.3613 1.2194 1.5501 1.8343 3.4753 1.8867 5.7656h-15.861l0.0039 0.17383c0.04406 2.0145 0.67789 3.7129 1.8965 5.0644 1.2854 1.4183 2.9444 2.1348 4.9336 2.1348 1.9184 0 3.5619-0.58936 4.9023-1.7637 0.58659-0.51192 1.2092-1.3505 1.8672-2.4277l1.6172 0.84961c-1.1683 2.2074-2.7413 3.7112-4.7617 4.4883h-0.00195c-1.0058 0.39173-2.1482 0.58984-3.4297 0.58984-2.6147 0-4.7583-0.85702-6.4707-2.5801-1.7019-1.7232-2.5488-3.8731-2.5488-6.4883 0-2.206 0.6723-4.1607 2.0254-5.8867 1.7144-2.1936 3.9857-3.2812 6.8652-3.2812zm0.03321 1.8359c-1.7688 0-3.3058 0.57349-4.5801 1.7148-0.9408 0.84-1.6417 2.0894-2.1133 3.7344l-0.0625 0.21875h13.6l-0.05274-0.21289c-0.57247-2.2789-1.8184-3.8862-3.7148-4.7734-0.97448-0.45402-2.002-0.68164-3.0762-0.68164zm0 0.3418c1.026 0 2.0007 0.21472 2.9316 0.64844 1.7376 0.8129 2.8524 2.2675 3.4297 4.3359h-12.639c0.45677-1.479 1.0913-2.6122 1.9238-3.3555h0.00195c1.2156-1.0888 2.6561-1.6289 4.3516-1.6289z" color="#000000" color-rendering="auto" dominant-baseline="auto" image-rendering="auto" solid-color="#000000" stop-color="#000000" style="font-feature-settings:normal;font-variant-alternates:normal;font-variant-caps:normal;font-variant-east-asian:normal;font-variant-ligatures:normal;font-variant-numeric:normal;font-variant-position:normal;font-variation-settings:normal;inline-size:0;isolation:auto;mix-blend-mode:normal;shape-margin:0;shape-padding:0;text-decoration-color:#000000;text-decoration-line:none;text-decoration-style:solid;text-indent:0;text-orientation:mixed;text-transform:none;white-space:normal"/>
  </g>
  <g>
   <path class="text" d="m173.12 223.27h-2.241v-3.0367c-1.9162 2.3276-4.2817 3.4914-7.0964 3.4914-2.5549 0-4.7093-0.92021-6.4631-2.7606-1.7322-1.8079-2.5982-4.0002-2.5982-6.5768 0-2.5441 0.88231-4.7201 2.6469-6.528 1.7755-1.8079 3.9352-2.7119 6.4793-2.7119 2.9122 0 5.256 1.2342 7.0314 3.7025v-10.068h2.241zm-2.0948-8.7365c0-2.0244-0.66579-3.7295-1.9974-5.1153-1.3208-1.3857-2.988-2.0786-5.0016-2.0786-2.7065 0-4.7255 1.1854-6.0571 3.5563-0.63873 1.1259-0.95809 2.3168-0.95809 3.5726s0.31936 2.4521 0.95809 3.5888c0.63873 1.1259 1.494 2.0082 2.5658 2.6469 1.0826 0.62791 2.241 0.94186 3.4751 0.94186 1.245 0 2.425-0.31395 3.5401-0.94186s1.9703-1.4777 2.5658-2.5495c0.60625-1.0718 0.90938-2.2789 0.90938-3.6213z" color="#000000" color-rendering="auto" dominant-baseline="auto" fill="#000000" image-rendering="auto" solid-color="#000000" stop-color="#000000" style="font-feature-settings:normal;font-variant-alternates:normal;font-variant-caps:normal;font-variant-east-asian:normal;font-variant-ligatures:normal;font-variant-numeric:normal;font-variant-position:normal;font-variation-settings:normal;inline-size:0;isolation:auto;mix-blend-mode:normal;shape-margin:0;shape-padding:0;text-decoration-color:#000000;text-decoration-line:none;text-decoration-style:solid;text-indent:0;text-orientation:mixed;text-transform:none;white-space:normal"/>
   <path class="text" d="m170.71 198.62v9.8594c-1.7693-2.2647-4.047-3.4941-6.8613-3.4941-2.5846 0-4.7956 0.92662-6.5996 2.7637h-0.00195c-1.7926 1.8366-2.6953 4.0648-2.6953 6.6484 0 2.6143 0.88706 4.8564 2.6465 6.6934 1.7824 1.8704 3.99 2.8144 6.5859 2.8144 2.7294 0 5.0309-1.1594 6.9258-3.3066v2.8516h2.582v-0.16992-24.66h-2.582zm0.3418 0.3418h1.8984v24.146h-1.8984v-3.3418l-0.30274 0.36719c-1.8901 2.2959-4.1972 3.4297-6.9648 3.4297-2.5139 0-4.6146-0.89662-6.3398-2.707-1.7041-1.7786-2.5508-3.9207-2.5508-6.459 1e-5 -2.5046 0.86298-4.629 2.5996-6.4082 1.7466-1.778 3.8524-2.6621 6.3555-2.6621 2.8639 0 5.145 1.2005 6.8945 3.6328l0.3086 0.42969v-10.428zm-7.0234 8.2168c-2.7564 0-4.8512 1.2286-6.207 3.6426h0.00195c-0.65218 1.1496-0.98047 2.3714-0.98047 3.6562 0 1.2848 0.32662 2.5137 0.97852 3.6738h0.00195c0.65214 1.1495 1.5301 2.0553 2.627 2.709v0.00195c1.107 0.64205 2.2994 0.96485 3.5625 0.96485 1.2737 0 2.4843-0.3236 3.623-0.96485 1.1395-0.64165 2.0204-1.515 2.6309-2.6133v-0.00195c0.62071-1.098 0.93164-2.3356 0.93164-3.7031 0-2.0619-0.68452-3.8187-2.0449-5.2344-1.3507-1.4171-3.0722-2.1309-5.125-2.1309zm0 0.34179c1.9744 0 3.5861 0.67108 4.877 2.0254h0.00196c1.3028 1.3557 1.9492 3.0111 1.9492 4.998 0 1.3167-0.29553 2.492-0.88672 3.5371h-0.00196c-0.58031 1.0446-1.4098 1.8705-2.5 2.4844-1.0914 0.61456-2.2388 0.91992-3.4551 0.91992-1.2052 0-2.3324-0.30616-3.3906-0.91992-1.0455-0.62364-1.8771-1.4806-2.502-2.582-0.62556-1.1133-0.93555-2.279-0.93555-3.5059 0-1.2268 0.31028-2.3861 0.93555-3.4883 1.3074-2.3278 3.2516-3.4688 5.9082-3.4688z" color="#000000" color-rendering="auto" dominant-baseline="auto" image-rendering="auto" solid-color="#000000" stop-color="#000000" style="font-feature-settings:normal;font-variant-alternates:normal;font-variant-caps:normal;font-variant-east-asian:normal;font-variant-ligatures:normal;font-variant-numeric:normal;font-variant-position:normal;font-variation-settings:normal;inline-size:0;isolation:auto;mix-blend-mode:normal;shape-margin:0;shape-padding:0;text-decoration-color:#000000;text-decoration-line:none;text-decoration-style:solid;text-indent:0;text-orientation:mixed;text-transform:none;white-space:normal"/>
  </g>
  <g>
   <path class="text" d="m180.22 223.27h-2.2734v-24.488h2.2734z" color="#000000" color-rendering="auto" dominant-baseline="auto" fill="#000000" image-rendering="auto" solid-color="#000000" stop-color="#000000" style="font-feature-settings:normal;font-variant-alternates:normal;font-variant-caps:normal;font-variant-east-asian:normal;font-variant-ligatures:normal;font-variant-numeric:normal;font-variant-position:normal;font-variation-settings:normal;inline-size:0;isolation:auto;mix-blend-mode:normal;shape-margin:0;shape-padding:0;text-decoration-color:#000000;text-decoration-line:none;text-decoration-style:solid;text-indent:0;text-orientation:mixed;text-transform:none;white-space:normal"/>
   <path class="text" d="m177.77 198.62v24.83h2.6152v-0.16992-24.66h-2.6152zm0.3418 0.3418h1.9316v24.146h-1.9316v-24.146z" color="#000000" color-rendering="auto" dominant-baseline="auto" image-rendering="auto" solid-color="#000000" stop-color="#000000" style="font-feature-settings:normal;font-variant-alternates:normal;font-variant-caps:normal;font-variant-east-asian:normal;font-variant-ligatures:normal;font-variant-numeric:normal;font-variant-position:normal;font-variation-settings:normal;inline-size:0;isolation:auto;mix-blend-mode:normal;shape-margin:0;shape-padding:0;text-decoration-color:#000000;text-decoration-line:none;text-decoration-style:solid;text-indent:0;text-orientation:mixed;text-transform:none;white-space:normal"/>
  </g>
  <g>
   <path class="text" d="m202.35 214.62h-15.882c0.0433 1.9812 0.66034 3.6321 1.8512 4.9529 1.2558 1.3857 2.858 2.0786 4.8067 2.0786 1.8837 0 3.4806-0.57378 4.7905-1.7213 0.59543-0.51964 1.2396-1.3586 1.9324-2.517l1.9162 1.0068c-1.1908 2.3276-2.8418 3.8973-4.9529 4.7093-1.0285 0.40056-2.1923 0.60084-3.4914 0.60084-2.6524 0-4.85-0.8769-6.593-2.6307-1.7322-1.7538-2.5982-3.9569-2.5982-6.6092 0-2.241 0.68745-4.2384 2.0624-5.9922 1.743-2.2302 4.076-3.3452 6.999-3.3452 3.0096 0 5.413 1.1421 7.2101 3.4264 1.2775 1.6239 1.927 3.6375 1.9487 6.0409zm-2.5008-1.9649c-0.56295-2.241-1.77-3.7945-3.6213-4.6606-0.95269-0.44387-1.9541-0.6658-3.0042-0.6658-1.7322 0-3.2207 0.55754-4.4657 1.6726-0.90938 0.81195-1.5968 2.0299-2.0624 3.6538z" color="#000000" color-rendering="auto" dominant-baseline="auto" fill="#000000" image-rendering="auto" solid-color="#000000" stop-color="#000000" style="font-feature-settings:normal;font-variant-alternates:normal;font-variant-caps:normal;font-variant-east-asian:normal;font-variant-ligatures:normal;font-variant-numeric:normal;font-variant-position:normal;font-variation-settings:normal;inline-size:0;isolation:auto;mix-blend-mode:normal;shape-margin:0;shape-padding:0;text-decoration-color:#000000;text-decoration-line:none;text-decoration-style:solid;text-indent:0;text-orientation:mixed;text-transform:none;white-space:normal"/>
   <path class="text" d="m193.19 204.98c-2.9665 0-5.3613 1.1454-7.1328 3.4121-1.3967 1.7816-2.0977 3.8217-2.0977 6.0976 0 2.6896 0.88406 4.9441 2.6465 6.7285 1.7735 1.7846 4.0248 2.6816 6.7148 2.6816 1.3167 0 2.5016-0.20389 3.5527-0.61328v0.00195c2.1521-0.82772 3.8371-2.4342 5.043-4.791l0.07812-0.15235-2.209-1.1602-0.08399 0.13867c-0.68757 1.1495-1.3257 1.9767-1.8984 2.4766-1.2794 1.1208-2.8287 1.6797-4.6777 1.6797-1.9082 0-3.4534-0.67032-4.6797-2.0234-1.1248-1.2475-1.6986-2.8042-1.7754-4.666h15.852l-0.00195-0.17383c-0.02192-2.4333-0.68187-4.4888-1.9844-6.1445-1.8258-2.3207-4.2928-3.4922-7.3457-3.4922zm0 0.3418c2.9664 0 5.3077 1.1135 7.0762 3.3613 1.2194 1.5501 1.8343 3.4753 1.8867 5.7656h-15.859l0.00391 0.17383c0.04399 2.0145 0.67587 3.7129 1.8945 5.0644 1.2854 1.4183 2.9444 2.1348 4.9336 2.1348 1.9178 0 3.5621-0.59012 4.9023-1.7637 0.58659-0.51192 1.2092-1.3505 1.8672-2.4277l1.6191 0.84961c-1.1683 2.2074-2.7433 3.7112-4.7637 4.4883-1.0058 0.39173-2.1481 0.58984-3.4297 0.58984-2.6141 0-4.7585-0.85783-6.4707-2.5801-1.7019-1.7232-2.5488-3.8731-2.5488-6.4883 0-2.206 0.6723-4.1607 2.0254-5.8867 1.7144-2.1936 3.9838-3.2812 6.8633-3.2812zm0.03321 1.8359c-1.7688 0-3.3058 0.57349-4.5801 1.7148-0.9408 0.84-1.6398 2.0894-2.1113 3.7344l-0.0625 0.21875h13.6l-0.05469-0.21289c-0.57247-2.2789-1.8184-3.8862-3.7148-4.7734-0.97448-0.45402-2.002-0.68164-3.0762-0.68164zm0 0.3418c1.026 0 2.0007 0.21472 2.9316 0.64844 1.7376 0.81289 2.8523 2.2676 3.4297 4.3359h-12.637c0.45676-1.479 1.0913-2.6122 1.9238-3.3555 1.2156-1.0888 2.6561-1.6289 4.3516-1.6289z" color="#000000" color-rendering="auto" dominant-baseline="auto" image-rendering="auto" solid-color="#000000" stop-color="#000000" style="font-feature-settings:normal;font-variant-alternates:normal;font-variant-caps:normal;font-variant-east-asian:normal;font-variant-ligatures:normal;font-variant-numeric:normal;font-variant-position:normal;font-variation-settings:normal;inline-size:0;isolation:auto;mix-blend-mode:normal;shape-margin:0;shape-padding:0;text-decoration-color:#000000;text-decoration-line:none;text-decoration-style:solid;text-indent:0;text-orientation:mixed;text-transform:none;white-space:normal"/>
  </g>
  <g>
   <path class="text" d="m222.01 223.27h-2.2572v-8.428c0-1.992-0.0866-3.3506-0.25982-4.076-0.56295-2.3492-2.0461-3.5238-4.4495-3.5238-1.3749 0-2.609 0.45469-3.7025 1.3641-1.0826 0.89855-1.7971 2.0244-2.1435 3.3777-0.21652 0.85525-0.32478 2.4575-0.32478 4.8067v6.4793h-2.2734v-17.668h2.2734v3.1666c1.8079-2.4142 4.0164-3.6213 6.6255-3.6213 1.2883 0 2.4467 0.33019 3.4751 0.99057 1.0393 0.64956 1.8025 1.5535 2.2897 2.7119 0.49799 1.1476 0.74699 2.923 0.74699 5.3264z" color="#000000" color-rendering="auto" dominant-baseline="auto" fill="#000000" image-rendering="auto" solid-color="#000000" stop-color="#000000" style="font-feature-settings:normal;font-variant-alternates:normal;font-variant-caps:normal;font-variant-east-asian:normal;font-variant-ligatures:normal;font-variant-numeric:normal;font-variant-position:normal;font-variation-settings:normal;inline-size:0;isolation:auto;mix-blend-mode:normal;shape-margin:0;shape-padding:0;text-decoration-color:#000000;text-decoration-line:none;text-decoration-style:solid;text-indent:0;text-orientation:mixed;text-transform:none;white-space:normal"/>
   <path class="text" d="m215.5 204.98c-2.5281 0-4.6719 1.2059-6.4531 3.4141v-2.959h-2.6152v18.01h2.6152v-6.6504c0-2.344 0.11098-3.9445 0.31836-4.7637 0.33807-1.3206 1.0308-2.4117 2.0879-3.2891 1.0663-0.88686 2.2565-1.3242 3.5938-1.3242 1.1738 0 2.1022 0.28434 2.8086 0.84375s1.1996 1.401 1.4746 2.5488c0.165 0.69095 0.25391 2.0501 0.25391 4.0371v8.5976h2.5996v-0.16992-9.0938c0-2.4152-0.24638-4.207-0.76172-5.3945-0.49944-1.1862-1.2871-2.1222-2.3535-2.7891h-0.00195c-1.0554-0.67726-2.2496-1.0176-3.5664-1.0176zm0 0.3418c1.2591 0 2.3816 0.32199 3.3828 0.96484h0.00195c1.0107 0.63172 1.7479 1.504 2.2227 2.6328v0.00196h0.00195c0.48064 1.1076 0.73242 2.8682 0.73242 5.2598v8.9219h-1.916v-8.2559c0-1.9969-0.08224-3.3575-0.26367-4.1172-0.28789-1.2014-0.8189-2.1211-1.5957-2.7363-0.7768-0.6152-1.79-0.91797-3.0195-0.91797-1.4126 0-2.692 0.4724-3.8125 1.4043-1.1082 0.91976-1.8444 2.0809-2.1992 3.4668-0.22566 0.89134-0.33008 2.4932-0.33008 4.8476v6.3086h-1.9316v-17.326h1.9316v3.5098l0.30664-0.41211c1.7843-2.3826 3.932-3.5527 6.4883-3.5527z" color="#000000" color-rendering="auto" dominant-baseline="auto" image-rendering="auto" solid-color="#000000" stop-color="#000000" style="font-feature-settings:normal;font-variant-alternates:normal;font-variant-caps:normal;font-variant-east-asian:normal;font-variant-ligatures:normal;font-variant-numeric:normal;font-variant-position:normal;font-variation-settings:normal;inline-size:0;isolation:auto;mix-blend-mode:normal;shape-margin:0;shape-padding:0;text-decoration-color:#000000;text-decoration-line:none;text-decoration-style:solid;text-indent:0;text-orientation:mixed;text-transform:none;white-space:normal"/>
  </g>
  <g>
   <path class="text" d="m235.77 218.53c0 1.494-0.51423 2.7336-1.5427 3.7187-1.0285 0.98516-2.2951 1.4777-3.7999 1.4777-2.176 0-3.9136-0.8336-5.2127-2.5008l1.429-1.6239c1.1584 1.3099 2.3871 1.9649 3.6862 1.9649 0.85525 0 1.6131-0.27606 2.2734-0.82818 0.67121-0.56295 1.0068-1.2666 1.0068-2.1111 0-0.85525-0.39515-1.6076-1.1854-2.2572-0.38974-0.32478-1.1584-0.77947-2.3059-1.3641-1.3099-0.67121-2.268-1.337-2.8743-1.9974-0.82277-0.88773-1.2342-1.9487-1.2342-3.1828 0-1.3749 0.4601-2.4954 1.3803-3.3615 0.93103-0.8769 2.084-1.3154 3.4589-1.3154 1.6239 0 3.2586 0.79571 4.9042 2.3871l-1.4615 1.5102c-1.2125-1.18-2.398-1.77-3.5563-1.77-0.70369 0-1.3262 0.23276-1.8675 0.69827-0.54129 0.46551-0.81194 1.0447-0.81194 1.7376 0 1.1692 1.1259 2.3384 3.3777 3.5076 1.3857 0.71451 2.3925 1.3966 3.0204 2.0461 0.8769 0.90938 1.3154 1.9974 1.3154 3.264z" color="#000000" color-rendering="auto" dominant-baseline="auto" fill="#000000" image-rendering="auto" solid-color="#000000" stop-color="#000000" style="font-feature-settings:normal;font-variant-alternates:normal;font-variant-caps:normal;font-variant-east-asian:normal;font-variant-ligatures:normal;font-variant-numeric:normal;font-variant-position:normal;font-variation-settings:normal;inline-size:0;isolation:auto;mix-blend-mode:normal;shape-margin:0;shape-padding:0;text-decoration-color:#000000;text-decoration-line:none;text-decoration-style:solid;text-indent:0;text-orientation:mixed;text-transform:none;white-space:normal"/>
   <path class="text" d="m230.85 204.98c-1.4112 0-2.6146 0.45759-3.5762 1.3633-0.95307 0.89701-1.4336 2.0713-1.4336 3.4844 0 1.2716 0.43046 2.3824 1.2793 3.2988 0.62822 0.68432 1.6012 1.3585 2.9219 2.0352h0.00196c1.1431 0.58234 1.9083 1.0376 2.2734 1.3418v0.00195c0.76187 0.62619 1.123 1.3224 1.123 2.125 0 0.79914-0.30634 1.4446-0.94531 1.9805-0.63252 0.52883-1.3456 0.78711-2.1641 0.78711-1.2417 0-2.4193-0.62007-3.5566-1.9062l-0.1289-0.14649-1.6504 1.877 0.08593 0.11132c1.3276 1.7037 3.128 2.5664 5.3477 2.5664 1.5421 0 2.8594-0.51142 3.918-1.5254 1.0596-1.015 1.5957-2.3086 1.5957-3.8418 0-1.3061-0.45885-2.4449-1.3633-3.3828-0.64981-0.67221-1.6693-1.3607-3.0644-2.0801-1.1156-0.57923-1.9451-1.1566-2.4883-1.7207s-0.79688-1.105-0.79688-1.6348c0-0.64834 0.24245-1.1692 0.75196-1.6074 0.51353-0.44164 1.0899-0.65625 1.7559-0.65625 1.1003 0 2.2445 0.55965 3.4375 1.7207l0.12304 0.11914 1.6992-1.7559-0.12305-0.11914c-1.6657-1.611-3.3437-2.4356-5.0234-2.4356zm0 0.3418c1.5225 0 3.0682 0.75737 4.6445 2.2383l-1.2227 1.2637c-1.1847-1.1108-2.3651-1.7148-3.5352-1.7148-0.74138 0-1.4095 0.24889-1.9785 0.73828-0.57308 0.49285-0.87109 1.1298-0.87109 1.8672 0 0.63947 0.30988 1.2679 0.89257 1.873 0.5827 0.60511 1.4399 1.1971 2.5762 1.7871h0.00195c1.3763 0.70966 2.3686 1.3868 2.9746 2.0137 0.84857 0.88057 1.2676 1.9179 1.2676 3.1445 0 1.4548-0.49294 2.6404-1.4902 3.5957-0.99838 0.95635-2.2141 1.4297-3.6816 1.4297-2.0804 0-3.7117-0.79399-4.9707-2.3457l1.207-1.373c1.1396 1.2302 2.364 1.9004 3.666 1.9004 0.89204 0 1.6946-0.29177 2.3828-0.86718h0.00195c0.70346-0.58999 1.0664-1.3525 1.0664-2.2422 0-0.90703-0.42889-1.7161-1.2461-2.3887-0.41437-0.34531-1.1859-0.79791-2.3379-1.3848-1.2992-0.66571-2.2419-1.3245-2.8262-1.9609-0.79593-0.85876-1.1894-1.8722-1.1894-3.0684 0-1.3368 0.43884-2.4012 1.3262-3.2363 0.90046-0.84811 2.0032-1.2695 3.3418-1.2695z" color="#000000" color-rendering="auto" dominant-baseline="auto" image-rendering="auto" solid-color="#000000" stop-color="#000000" style="font-feature-settings:normal;font-variant-alternates:normal;font-variant-caps:normal;font-variant-east-asian:normal;font-variant-ligatures:normal;font-variant-numeric:normal;font-variant-position:normal;font-variation-settings:normal;inline-size:0;isolation:auto;mix-blend-mode:normal;shape-margin:0;shape-padding:0;text-decoration-color:#000000;text-decoration-line:none;text-decoration-style:solid;text-indent:0;text-orientation:mixed;text-transform:none;white-space:normal"/>
  </g>
 </g>
</svg>
